<mxfile host="app.diagrams.net" modified="2022-12-15T09:48:06.698Z" agent="5.0 (X11; Linux x86_64) AppleWebKit/537.36 (KHTML, like Gecko) Chrome/105.0.0.0 Safari/537.36" etag="vvXksN6yPqC_PlerXjJt" version="20.6.2" type="github">
  <diagram id="lTOdnqHwf0qS6gmFb8QO" name="Page-1">
    <mxGraphModel dx="831" dy="2256" grid="0" gridSize="10" guides="1" tooltips="1" connect="1" arrows="1" fold="1" page="1" pageScale="1" pageWidth="850" pageHeight="1100" math="1" shadow="0">
      <root>
        <mxCell id="0" />
        <mxCell id="1" parent="0" />
        <mxCell id="ALtqPcB8lJd6HxCNgHzU-1" value="" style="endArrow=classic;html=1;rounded=0;" parent="1" edge="1">
          <mxGeometry width="50" height="50" relative="1" as="geometry">
            <mxPoint x="180" y="400" as="sourcePoint" />
            <mxPoint x="180" y="310" as="targetPoint" />
          </mxGeometry>
        </mxCell>
        <mxCell id="ALtqPcB8lJd6HxCNgHzU-2" value="" style="endArrow=classic;html=1;rounded=0;" parent="1" edge="1">
          <mxGeometry width="50" height="50" relative="1" as="geometry">
            <mxPoint x="180" y="400" as="sourcePoint" />
            <mxPoint x="60" y="420" as="targetPoint" />
          </mxGeometry>
        </mxCell>
        <mxCell id="ALtqPcB8lJd6HxCNgHzU-3" value="" style="endArrow=classic;html=1;rounded=0;" parent="1" edge="1">
          <mxGeometry width="50" height="50" relative="1" as="geometry">
            <mxPoint x="180" y="400" as="sourcePoint" />
            <mxPoint x="280" y="460" as="targetPoint" />
          </mxGeometry>
        </mxCell>
        <mxCell id="ALtqPcB8lJd6HxCNgHzU-8" value="" style="ellipse;whiteSpace=wrap;html=1;aspect=fixed;fillOpacity=100;fillColor=#f0a30a;strokeColor=none;fontColor=#000000;" parent="1" vertex="1">
          <mxGeometry x="130" y="350" width="10" height="10" as="geometry" />
        </mxCell>
        <mxCell id="ALtqPcB8lJd6HxCNgHzU-9" value="" style="ellipse;whiteSpace=wrap;html=1;aspect=fixed;fillOpacity=100;fillColor=#f0a30a;strokeColor=none;fontColor=#000000;" parent="1" vertex="1">
          <mxGeometry x="130" y="380" width="10" height="10" as="geometry" />
        </mxCell>
        <mxCell id="ALtqPcB8lJd6HxCNgHzU-10" value="" style="ellipse;whiteSpace=wrap;html=1;aspect=fixed;fillOpacity=100;fillColor=#f0a30a;strokeColor=none;fontColor=#000000;" parent="1" vertex="1">
          <mxGeometry x="140" y="410" width="10" height="10" as="geometry" />
        </mxCell>
        <mxCell id="ALtqPcB8lJd6HxCNgHzU-11" value="" style="ellipse;whiteSpace=wrap;html=1;aspect=fixed;fillOpacity=100;fillColor=#f0a30a;strokeColor=none;fontColor=#000000;" parent="1" vertex="1">
          <mxGeometry x="160" y="430" width="10" height="10" as="geometry" />
        </mxCell>
        <mxCell id="ALtqPcB8lJd6HxCNgHzU-12" value="" style="ellipse;whiteSpace=wrap;html=1;aspect=fixed;fillOpacity=100;fillColor=#f0a30a;strokeColor=none;fontColor=#000000;" parent="1" vertex="1">
          <mxGeometry x="190" y="380" width="10" height="10" as="geometry" />
        </mxCell>
        <mxCell id="ALtqPcB8lJd6HxCNgHzU-13" value="" style="ellipse;whiteSpace=wrap;html=1;aspect=fixed;fillOpacity=100;fillColor=#f0a30a;strokeColor=none;fontColor=#000000;" parent="1" vertex="1">
          <mxGeometry x="210" y="370" width="10" height="10" as="geometry" />
        </mxCell>
        <mxCell id="ALtqPcB8lJd6HxCNgHzU-14" value="" style="ellipse;whiteSpace=wrap;html=1;aspect=fixed;fillOpacity=100;fillColor=#f0a30a;strokeColor=none;fontColor=#000000;" parent="1" vertex="1">
          <mxGeometry x="240" y="400" width="10" height="10" as="geometry" />
        </mxCell>
        <mxCell id="ALtqPcB8lJd6HxCNgHzU-15" value="" style="ellipse;whiteSpace=wrap;html=1;aspect=fixed;fillOpacity=100;fillColor=#f0a30a;strokeColor=none;fontColor=#000000;" parent="1" vertex="1">
          <mxGeometry x="230" y="380" width="10" height="10" as="geometry" />
        </mxCell>
        <mxCell id="ALtqPcB8lJd6HxCNgHzU-29" value="" style="ellipse;whiteSpace=wrap;html=1;aspect=fixed;fillOpacity=100;fillColor=#60A917;strokeColor=none;fontColor=#ffffff;" parent="1" vertex="1">
          <mxGeometry x="100" y="360" width="10" height="10" as="geometry" />
        </mxCell>
        <mxCell id="ALtqPcB8lJd6HxCNgHzU-30" value="" style="ellipse;whiteSpace=wrap;html=1;aspect=fixed;fillOpacity=100;fillColor=#60a917;strokeColor=none;fontColor=#ffffff;" parent="1" vertex="1">
          <mxGeometry x="100" y="390" width="10" height="10" as="geometry" />
        </mxCell>
        <mxCell id="ALtqPcB8lJd6HxCNgHzU-31" value="" style="ellipse;whiteSpace=wrap;html=1;aspect=fixed;fillOpacity=100;fillColor=#60a917;strokeColor=none;fontColor=#ffffff;" parent="1" vertex="1">
          <mxGeometry x="110" y="420" width="10" height="10" as="geometry" />
        </mxCell>
        <mxCell id="ALtqPcB8lJd6HxCNgHzU-32" value="" style="ellipse;whiteSpace=wrap;html=1;aspect=fixed;fillOpacity=100;fillColor=#60a917;strokeColor=none;fontColor=#ffffff;" parent="1" vertex="1">
          <mxGeometry x="130" y="440" width="10" height="10" as="geometry" />
        </mxCell>
        <mxCell id="ALtqPcB8lJd6HxCNgHzU-33" value="" style="ellipse;whiteSpace=wrap;html=1;aspect=fixed;fillOpacity=100;fillColor=#60a917;strokeColor=none;fontColor=#ffffff;" parent="1" vertex="1">
          <mxGeometry x="200" y="350" width="10" height="10" as="geometry" />
        </mxCell>
        <mxCell id="ALtqPcB8lJd6HxCNgHzU-34" value="" style="ellipse;whiteSpace=wrap;html=1;aspect=fixed;fillOpacity=100;fillColor=#60a917;strokeColor=none;fontColor=#ffffff;" parent="1" vertex="1">
          <mxGeometry x="220" y="345" width="10" height="10" as="geometry" />
        </mxCell>
        <mxCell id="ALtqPcB8lJd6HxCNgHzU-35" value="" style="ellipse;whiteSpace=wrap;html=1;aspect=fixed;fillOpacity=100;fillColor=#60a917;strokeColor=none;fontColor=#ffffff;" parent="1" vertex="1">
          <mxGeometry x="240" y="350" width="10" height="10" as="geometry" />
        </mxCell>
        <mxCell id="ALtqPcB8lJd6HxCNgHzU-36" value="" style="ellipse;whiteSpace=wrap;html=1;aspect=fixed;fillOpacity=100;fillColor=#60a917;strokeColor=none;fontColor=#ffffff;" parent="1" vertex="1">
          <mxGeometry x="250" y="370" width="10" height="10" as="geometry" />
        </mxCell>
        <mxCell id="ALtqPcB8lJd6HxCNgHzU-39" value="" style="endArrow=classic;html=1;rounded=0;" parent="1" edge="1">
          <mxGeometry width="50" height="50" relative="1" as="geometry">
            <mxPoint x="600" y="400" as="sourcePoint" />
            <mxPoint x="600" y="310" as="targetPoint" />
          </mxGeometry>
        </mxCell>
        <mxCell id="ALtqPcB8lJd6HxCNgHzU-40" value="" style="endArrow=classic;html=1;rounded=0;" parent="1" edge="1">
          <mxGeometry width="50" height="50" relative="1" as="geometry">
            <mxPoint x="600" y="400" as="sourcePoint" />
            <mxPoint x="480" y="420" as="targetPoint" />
          </mxGeometry>
        </mxCell>
        <mxCell id="ALtqPcB8lJd6HxCNgHzU-41" value="" style="endArrow=classic;html=1;rounded=0;" parent="1" edge="1">
          <mxGeometry width="50" height="50" relative="1" as="geometry">
            <mxPoint x="600" y="400" as="sourcePoint" />
            <mxPoint x="700" y="460" as="targetPoint" />
          </mxGeometry>
        </mxCell>
        <mxCell id="ALtqPcB8lJd6HxCNgHzU-42" value="" style="ellipse;whiteSpace=wrap;html=1;aspect=fixed;fillOpacity=100;fillColor=#f0a30a;strokeColor=none;fontColor=#000000;" parent="1" vertex="1">
          <mxGeometry x="550" y="350" width="10" height="10" as="geometry" />
        </mxCell>
        <mxCell id="ALtqPcB8lJd6HxCNgHzU-43" value="" style="ellipse;whiteSpace=wrap;html=1;aspect=fixed;fillOpacity=100;fillColor=#f0a30a;strokeColor=none;fontColor=#000000;" parent="1" vertex="1">
          <mxGeometry x="550" y="380" width="10" height="10" as="geometry" />
        </mxCell>
        <mxCell id="ALtqPcB8lJd6HxCNgHzU-44" value="" style="ellipse;whiteSpace=wrap;html=1;aspect=fixed;fillOpacity=100;fillColor=#f0a30a;strokeColor=none;fontColor=#000000;" parent="1" vertex="1">
          <mxGeometry x="560" y="410" width="10" height="10" as="geometry" />
        </mxCell>
        <mxCell id="ALtqPcB8lJd6HxCNgHzU-45" value="" style="ellipse;whiteSpace=wrap;html=1;aspect=fixed;fillOpacity=100;fillColor=#f0a30a;strokeColor=none;fontColor=#000000;" parent="1" vertex="1">
          <mxGeometry x="580" y="430" width="10" height="10" as="geometry" />
        </mxCell>
        <mxCell id="ALtqPcB8lJd6HxCNgHzU-46" value="" style="ellipse;whiteSpace=wrap;html=1;aspect=fixed;fillOpacity=100;fillColor=#f0a30a;strokeColor=none;fontColor=#000000;" parent="1" vertex="1">
          <mxGeometry x="610" y="380" width="10" height="10" as="geometry" />
        </mxCell>
        <mxCell id="ALtqPcB8lJd6HxCNgHzU-47" value="" style="ellipse;whiteSpace=wrap;html=1;aspect=fixed;fillOpacity=100;fillColor=#f0a30a;strokeColor=none;fontColor=#000000;" parent="1" vertex="1">
          <mxGeometry x="630" y="370" width="10" height="10" as="geometry" />
        </mxCell>
        <mxCell id="ALtqPcB8lJd6HxCNgHzU-48" value="" style="ellipse;whiteSpace=wrap;html=1;aspect=fixed;fillOpacity=100;fillColor=#f0a30a;strokeColor=none;fontColor=#000000;" parent="1" vertex="1">
          <mxGeometry x="660" y="400" width="10" height="10" as="geometry" />
        </mxCell>
        <mxCell id="ALtqPcB8lJd6HxCNgHzU-49" value="" style="ellipse;whiteSpace=wrap;html=1;aspect=fixed;fillOpacity=100;fillColor=#f0a30a;strokeColor=none;fontColor=#000000;" parent="1" vertex="1">
          <mxGeometry x="650" y="380" width="10" height="10" as="geometry" />
        </mxCell>
        <mxCell id="ALtqPcB8lJd6HxCNgHzU-50" value="" style="ellipse;whiteSpace=wrap;html=1;aspect=fixed;fillOpacity=100;fillColor=#60a917;strokeColor=none;fontColor=#ffffff;" parent="1" vertex="1">
          <mxGeometry x="520" y="360" width="10" height="10" as="geometry" />
        </mxCell>
        <mxCell id="ALtqPcB8lJd6HxCNgHzU-51" value="" style="ellipse;whiteSpace=wrap;html=1;aspect=fixed;fillOpacity=100;fillColor=#60a917;strokeColor=none;fontColor=#ffffff;" parent="1" vertex="1">
          <mxGeometry x="520" y="390" width="10" height="10" as="geometry" />
        </mxCell>
        <mxCell id="ALtqPcB8lJd6HxCNgHzU-52" value="" style="ellipse;whiteSpace=wrap;html=1;aspect=fixed;fillOpacity=100;fillColor=#60a917;strokeColor=none;fontColor=#ffffff;" parent="1" vertex="1">
          <mxGeometry x="530" y="420" width="10" height="10" as="geometry" />
        </mxCell>
        <mxCell id="ALtqPcB8lJd6HxCNgHzU-53" value="" style="ellipse;whiteSpace=wrap;html=1;aspect=fixed;fillOpacity=100;fillColor=#60a917;strokeColor=none;fontColor=#ffffff;" parent="1" vertex="1">
          <mxGeometry x="550" y="440" width="10" height="10" as="geometry" />
        </mxCell>
        <mxCell id="ALtqPcB8lJd6HxCNgHzU-54" value="" style="ellipse;whiteSpace=wrap;html=1;aspect=fixed;fillOpacity=100;fillColor=#60a917;strokeColor=none;fontColor=#ffffff;" parent="1" vertex="1">
          <mxGeometry x="620" y="350" width="10" height="10" as="geometry" />
        </mxCell>
        <mxCell id="ALtqPcB8lJd6HxCNgHzU-55" value="" style="ellipse;whiteSpace=wrap;html=1;aspect=fixed;fillOpacity=100;fillColor=#60a917;strokeColor=none;fontColor=#ffffff;" parent="1" vertex="1">
          <mxGeometry x="640" y="340" width="10" height="10" as="geometry" />
        </mxCell>
        <mxCell id="ALtqPcB8lJd6HxCNgHzU-56" value="" style="ellipse;whiteSpace=wrap;html=1;aspect=fixed;fillOpacity=100;fillColor=#60a917;strokeColor=none;fontColor=#ffffff;" parent="1" vertex="1">
          <mxGeometry x="660" y="350" width="10" height="10" as="geometry" />
        </mxCell>
        <mxCell id="ALtqPcB8lJd6HxCNgHzU-57" value="" style="ellipse;whiteSpace=wrap;html=1;aspect=fixed;fillOpacity=100;fillColor=#60a917;strokeColor=none;fontColor=#ffffff;" parent="1" vertex="1">
          <mxGeometry x="670" y="370" width="10" height="10" as="geometry" />
        </mxCell>
        <mxCell id="ALtqPcB8lJd6HxCNgHzU-58" value="" style="shape=singleArrow;whiteSpace=wrap;html=1;fillColor=#000000;" parent="1" vertex="1">
          <mxGeometry x="280" y="360" width="30" height="20" as="geometry" />
        </mxCell>
        <mxCell id="ALtqPcB8lJd6HxCNgHzU-59" value="" style="shape=singleArrow;whiteSpace=wrap;html=1;fillColor=#000000;" parent="1" vertex="1">
          <mxGeometry x="450" y="360" width="30" height="20" as="geometry" />
        </mxCell>
        <mxCell id="ALtqPcB8lJd6HxCNgHzU-62" value="&lt;font color=&quot;#F0A30A&quot;&gt;&lt;font style=&quot;font-size: 14px;&quot;&gt;&lt;b&gt;frame 1 point cloud&lt;/b&gt;&lt;/font&gt;&lt;br&gt;&lt;/font&gt;" style="text;html=1;align=center;verticalAlign=middle;resizable=0;points=[];autosize=1;strokeColor=none;fillColor=none;" parent="1" vertex="1">
          <mxGeometry x="10" y="460" width="150" height="30" as="geometry" />
        </mxCell>
        <mxCell id="ALtqPcB8lJd6HxCNgHzU-63" value="&lt;div&gt;&lt;font style=&quot;font-size: 14px;&quot; color=&quot;#60A917&quot;&gt;&lt;b&gt;frame 2 point cloud&lt;/b&gt;&lt;/font&gt;&lt;/div&gt;" style="text;html=1;align=center;verticalAlign=middle;resizable=0;points=[];autosize=1;strokeColor=none;fillColor=none;fontColor=#F0A30A;" parent="1" vertex="1">
          <mxGeometry x="10" y="495" width="150" height="30" as="geometry" />
        </mxCell>
        <mxCell id="ALtqPcB8lJd6HxCNgHzU-64" value="" style="endArrow=blockThin;html=1;rounded=0;fontColor=#60A917;fillColor=#e51400;strokeColor=#B20000;strokeWidth=2;exitX=0;exitY=0.5;exitDx=0;exitDy=0;entryX=1;entryY=0;entryDx=0;entryDy=0;endFill=1;" parent="1" source="ALtqPcB8lJd6HxCNgHzU-42" target="hBawRHbjX-rTQKL8toqe-18" edge="1">
          <mxGeometry width="50" height="50" relative="1" as="geometry">
            <mxPoint x="350" y="620" as="sourcePoint" />
            <mxPoint x="480" y="280" as="targetPoint" />
            <Array as="points" />
          </mxGeometry>
        </mxCell>
        <mxCell id="ALtqPcB8lJd6HxCNgHzU-65" value="" style="endArrow=blockThin;html=1;rounded=0;fontColor=#60A917;fillColor=#e51400;strokeColor=#B20000;strokeWidth=2;exitX=0;exitY=0.5;exitDx=0;exitDy=0;endFill=1;entryX=1;entryY=0;entryDx=0;entryDy=0;" parent="1" source="ALtqPcB8lJd6HxCNgHzU-43" target="hBawRHbjX-rTQKL8toqe-20" edge="1">
          <mxGeometry width="50" height="50" relative="1" as="geometry">
            <mxPoint x="550" y="383.54" as="sourcePoint" />
            <mxPoint x="530" y="405" as="targetPoint" />
            <Array as="points" />
          </mxGeometry>
        </mxCell>
        <mxCell id="ALtqPcB8lJd6HxCNgHzU-70" value="" style="endArrow=blockThin;html=1;rounded=0;fontColor=#60A917;fillColor=#e51400;strokeColor=#B20000;strokeWidth=2;exitX=0;exitY=0.5;exitDx=0;exitDy=0;endFill=1;entryX=1;entryY=0;entryDx=0;entryDy=0;" parent="1" source="ALtqPcB8lJd6HxCNgHzU-45" target="hBawRHbjX-rTQKL8toqe-22" edge="1">
          <mxGeometry width="50" height="50" relative="1" as="geometry">
            <mxPoint x="580" y="430" as="sourcePoint" />
            <mxPoint x="564" y="449" as="targetPoint" />
            <Array as="points" />
          </mxGeometry>
        </mxCell>
        <mxCell id="ALtqPcB8lJd6HxCNgHzU-71" value="" style="endArrow=blockThin;html=1;rounded=0;fontColor=#60A917;fillColor=#e51400;strokeColor=#B20000;strokeWidth=2;exitX=0.5;exitY=0;exitDx=0;exitDy=0;endFill=1;" parent="1" source="ALtqPcB8lJd6HxCNgHzU-46" edge="1">
          <mxGeometry width="50" height="50" relative="1" as="geometry">
            <mxPoint x="590.0000000000142" y="445" as="sourcePoint" />
            <mxPoint x="615" y="354" as="targetPoint" />
            <Array as="points" />
          </mxGeometry>
        </mxCell>
        <mxCell id="ALtqPcB8lJd6HxCNgHzU-73" value="" style="endArrow=blockThin;html=1;rounded=0;fontColor=#60A917;fillColor=#e51400;strokeColor=#B20000;strokeWidth=2;exitX=0.5;exitY=0;exitDx=0;exitDy=0;endFill=1;" parent="1" source="ALtqPcB8lJd6HxCNgHzU-47" edge="1">
          <mxGeometry width="50" height="50" relative="1" as="geometry">
            <mxPoint x="600.0000000000142" y="455" as="sourcePoint" />
            <mxPoint x="635" y="348" as="targetPoint" />
            <Array as="points" />
          </mxGeometry>
        </mxCell>
        <mxCell id="ALtqPcB8lJd6HxCNgHzU-74" value="" style="endArrow=blockThin;html=1;rounded=0;fontColor=#60A917;fillColor=#e51400;strokeColor=#B20000;strokeWidth=2;exitX=0.5;exitY=0;exitDx=0;exitDy=0;endFill=1;" parent="1" source="ALtqPcB8lJd6HxCNgHzU-49" edge="1">
          <mxGeometry width="50" height="50" relative="1" as="geometry">
            <mxPoint x="610.0000000000142" y="465" as="sourcePoint" />
            <mxPoint x="658" y="357" as="targetPoint" />
            <Array as="points" />
          </mxGeometry>
        </mxCell>
        <mxCell id="ALtqPcB8lJd6HxCNgHzU-75" value="" style="endArrow=blockThin;html=1;rounded=0;fontColor=#60A917;fillColor=#e51400;strokeColor=#B20000;strokeWidth=2;exitX=0.5;exitY=0;exitDx=0;exitDy=0;endFill=1;" parent="1" source="ALtqPcB8lJd6HxCNgHzU-48" edge="1">
          <mxGeometry width="50" height="50" relative="1" as="geometry">
            <mxPoint x="620.0000000000142" y="475" as="sourcePoint" />
            <mxPoint x="668" y="370" as="targetPoint" />
            <Array as="points" />
          </mxGeometry>
        </mxCell>
        <mxCell id="ALtqPcB8lJd6HxCNgHzU-76" value="" style="endArrow=blockThin;html=1;rounded=0;fontColor=#60A917;fillColor=#e51400;strokeColor=#B20000;strokeWidth=2;exitX=0;exitY=0.5;exitDx=0;exitDy=0;endFill=1;" parent="1" source="ALtqPcB8lJd6HxCNgHzU-44" edge="1">
          <mxGeometry width="50" height="50" relative="1" as="geometry">
            <mxPoint x="560" y="395" as="sourcePoint" />
            <mxPoint x="544" y="425" as="targetPoint" />
            <Array as="points" />
          </mxGeometry>
        </mxCell>
        <mxCell id="ALtqPcB8lJd6HxCNgHzU-78" value="&lt;font style=&quot;font-size: 16px;&quot;&gt;Input&lt;/font&gt;" style="text;html=1;align=center;verticalAlign=middle;resizable=0;points=[];autosize=1;strokeColor=none;fillColor=none;fontColor=#000000;strokeWidth=2;" parent="1" vertex="1">
          <mxGeometry x="158" y="275" width="54" height="31" as="geometry" />
        </mxCell>
        <mxCell id="ALtqPcB8lJd6HxCNgHzU-79" value="&lt;font style=&quot;font-size: 16px;&quot;&gt;Output&lt;/font&gt;" style="text;html=1;align=center;verticalAlign=middle;resizable=0;points=[];autosize=1;strokeColor=none;fillColor=none;fontColor=#000000;strokeWidth=2;" parent="1" vertex="1">
          <mxGeometry x="567" y="275" width="66" height="31" as="geometry" />
        </mxCell>
        <mxCell id="hBawRHbjX-rTQKL8toqe-3" value="&lt;font style=&quot;font-size: 16px;&quot;&gt;FlowNet3D&lt;/font&gt;" style="rounded=1;whiteSpace=wrap;html=1;fontSize=20;" vertex="1" parent="1">
          <mxGeometry x="330" y="345" width="100" height="50" as="geometry" />
        </mxCell>
        <mxCell id="hBawRHbjX-rTQKL8toqe-4" value="&lt;b style=&quot;&quot;&gt;&lt;font style=&quot;font-size: 16px;&quot; color=&quot;#b20000&quot;&gt;`d_i = x_i&#39; - x_i`&lt;/font&gt;&lt;/b&gt;" style="text;html=1;align=center;verticalAlign=middle;resizable=0;points=[];autosize=1;strokeColor=none;fillColor=none;" vertex="1" parent="1">
          <mxGeometry x="520" y="460" width="133" height="31" as="geometry" />
        </mxCell>
        <mxCell id="hBawRHbjX-rTQKL8toqe-5" value="&lt;b&gt;&lt;font style=&quot;font-size: 16px;&quot;&gt;`d_i`&lt;/font&gt;&lt;/b&gt;" style="text;html=1;align=center;verticalAlign=middle;resizable=0;points=[];autosize=1;strokeColor=none;fillColor=none;fontSize=14;fontColor=#B20000;" vertex="1" parent="1">
          <mxGeometry x="512" y="324" width="52" height="31" as="geometry" />
        </mxCell>
        <mxCell id="hBawRHbjX-rTQKL8toqe-6" value="&lt;font size=&quot;1&quot; color=&quot;#60a917&quot;&gt;&lt;b style=&quot;font-size: 16px;&quot;&gt;`y_i`&lt;/b&gt;&lt;/font&gt;" style="text;html=1;align=center;verticalAlign=middle;resizable=0;points=[];autosize=1;strokeColor=none;fillColor=none;fontSize=14;fontColor=#B20000;" vertex="1" parent="1">
          <mxGeometry x="65" y="338" width="51" height="31" as="geometry" />
        </mxCell>
        <mxCell id="hBawRHbjX-rTQKL8toqe-8" value="&lt;font size=&quot;1&quot; color=&quot;#f0a30a&quot;&gt;&lt;b style=&quot;font-size: 16px;&quot;&gt;`x_i`&lt;/b&gt;&lt;/font&gt;" style="text;html=1;align=center;verticalAlign=middle;resizable=0;points=[];autosize=1;strokeColor=none;fillColor=none;fontSize=14;fontColor=#B20000;" vertex="1" parent="1">
          <mxGeometry x="119.5" y="325" width="51" height="31" as="geometry" />
        </mxCell>
        <mxCell id="hBawRHbjX-rTQKL8toqe-9" value="&lt;font size=&quot;1&quot; color=&quot;#60a917&quot;&gt;&lt;b style=&quot;font-size: 16px;&quot;&gt;`y_i`&lt;/b&gt;&lt;/font&gt;" style="text;html=1;align=center;verticalAlign=middle;resizable=0;points=[];autosize=1;strokeColor=none;fillColor=none;fontSize=14;fontColor=#B20000;" vertex="1" parent="1">
          <mxGeometry x="486" y="339" width="51" height="31" as="geometry" />
        </mxCell>
        <mxCell id="hBawRHbjX-rTQKL8toqe-10" value="&lt;font size=&quot;1&quot; color=&quot;#f0a30a&quot;&gt;&lt;b style=&quot;font-size: 16px;&quot;&gt;`x_i`&lt;/b&gt;&lt;/font&gt;" style="text;html=1;align=center;verticalAlign=middle;resizable=0;points=[];autosize=1;strokeColor=none;fillColor=none;fontSize=14;fontColor=#B20000;" vertex="1" parent="1">
          <mxGeometry x="539" y="324" width="51" height="31" as="geometry" />
        </mxCell>
        <mxCell id="hBawRHbjX-rTQKL8toqe-14" value="&lt;font style=&quot;font-size: 16px;&quot; color=&quot;#f0a30a&quot;&gt;`P = {x_i|i = 1, ..., n_1}`&lt;/font&gt;" style="text;html=1;align=center;verticalAlign=middle;resizable=0;points=[];autosize=1;strokeColor=none;fillColor=none;fontSize=14;fontColor=#60A917;" vertex="1" parent="1">
          <mxGeometry x="160" y="460" width="181" height="31" as="geometry" />
        </mxCell>
        <mxCell id="hBawRHbjX-rTQKL8toqe-15" value="&lt;font style=&quot;font-size: 16px;&quot;&gt;`Q = {y_i|i = 1, ..., n_2}`&lt;/font&gt;" style="text;html=1;align=center;verticalAlign=middle;resizable=0;points=[];autosize=1;strokeColor=none;fillColor=none;fontSize=14;fontColor=#60A917;" vertex="1" parent="1">
          <mxGeometry x="159" y="495" width="183" height="31" as="geometry" />
        </mxCell>
        <mxCell id="hBawRHbjX-rTQKL8toqe-16" value="&lt;font color=&quot;#b20000&quot;&gt;&lt;b&gt;transnational&amp;nbsp;motion vector&amp;nbsp;&lt;/b&gt;&lt;/font&gt;" style="text;html=1;align=center;verticalAlign=middle;resizable=0;points=[];autosize=1;strokeColor=none;fillColor=none;fontSize=14;fontColor=#F0A30A;" vertex="1" parent="1">
          <mxGeometry x="376" y="495.5" width="210" height="30" as="geometry" />
        </mxCell>
        <mxCell id="hBawRHbjX-rTQKL8toqe-17" value="&lt;font size=&quot;1&quot; color=&quot;#b20000&quot;&gt;&lt;b style=&quot;font-size: 16px;&quot;&gt;`D = {d_i|i = 1, ..., n_1}`&lt;/b&gt;&lt;/font&gt;" style="text;html=1;align=center;verticalAlign=middle;resizable=0;points=[];autosize=1;strokeColor=none;fillColor=none;fontSize=14;fontColor=#60A917;" vertex="1" parent="1">
          <mxGeometry x="578" y="494" width="189" height="31" as="geometry" />
        </mxCell>
        <mxCell id="hBawRHbjX-rTQKL8toqe-18" value="" style="ellipse;whiteSpace=wrap;html=1;aspect=fixed;fillOpacity=100;fillColor=#FF99CC;strokeColor=none;fontColor=#000000;" vertex="1" parent="1">
          <mxGeometry x="523" y="365" width="10" height="10" as="geometry" />
        </mxCell>
        <mxCell id="hBawRHbjX-rTQKL8toqe-20" value="" style="ellipse;whiteSpace=wrap;html=1;aspect=fixed;fillOpacity=100;fillColor=#FF99CC;strokeColor=none;fontColor=#000000;" vertex="1" parent="1">
          <mxGeometry x="523" y="393" width="10" height="10" as="geometry" />
        </mxCell>
        <mxCell id="hBawRHbjX-rTQKL8toqe-21" value="" style="ellipse;whiteSpace=wrap;html=1;aspect=fixed;fillOpacity=100;fillColor=#FF99CC;strokeColor=none;fontColor=#000000;" vertex="1" parent="1">
          <mxGeometry x="533" y="423" width="10" height="10" as="geometry" />
        </mxCell>
        <mxCell id="hBawRHbjX-rTQKL8toqe-22" value="" style="ellipse;whiteSpace=wrap;html=1;aspect=fixed;fillOpacity=100;fillColor=#FF99CC;strokeColor=none;fontColor=#000000;" vertex="1" parent="1">
          <mxGeometry x="554" y="444" width="10" height="10" as="geometry" />
        </mxCell>
        <mxCell id="hBawRHbjX-rTQKL8toqe-23" value="" style="ellipse;whiteSpace=wrap;html=1;aspect=fixed;fillOpacity=100;fillColor=#FF99CC;strokeColor=none;fontColor=#000000;" vertex="1" parent="1">
          <mxGeometry x="610" y="345" width="10" height="10" as="geometry" />
        </mxCell>
        <mxCell id="hBawRHbjX-rTQKL8toqe-24" value="" style="ellipse;whiteSpace=wrap;html=1;aspect=fixed;fillOpacity=100;fillColor=#FF99CC;strokeColor=none;fontColor=#000000;" vertex="1" parent="1">
          <mxGeometry x="630" y="338" width="10" height="10" as="geometry" />
        </mxCell>
        <mxCell id="hBawRHbjX-rTQKL8toqe-25" value="" style="ellipse;whiteSpace=wrap;html=1;aspect=fixed;fillOpacity=100;fillColor=#FF99CC;strokeColor=none;fontColor=#000000;" vertex="1" parent="1">
          <mxGeometry x="653" y="348" width="10" height="10" as="geometry" />
        </mxCell>
        <mxCell id="hBawRHbjX-rTQKL8toqe-26" value="" style="ellipse;whiteSpace=wrap;html=1;aspect=fixed;fillOpacity=100;fillColor=#FF99CC;strokeColor=none;fontColor=#000000;" vertex="1" parent="1">
          <mxGeometry x="663" y="360" width="10" height="10" as="geometry" />
        </mxCell>
        <mxCell id="hBawRHbjX-rTQKL8toqe-29" value="&lt;b style=&quot;font-family: Helvetica; font-style: normal; font-variant-ligatures: normal; font-variant-caps: normal; letter-spacing: normal; orphans: 2; text-align: center; text-indent: 0px; text-transform: none; widows: 2; word-spacing: 0px; -webkit-text-stroke-width: 0px; background-color: rgb(248, 249, 250); text-decoration-thickness: initial; text-decoration-style: initial; text-decoration-color: initial; font-size: 16px;&quot;&gt;&lt;font color=&quot;#ff99cc&quot;&gt;`x_i&#39;`&lt;/font&gt;&lt;/b&gt;" style="text;whiteSpace=wrap;html=1;fontSize=16;fontColor=#B20000;" vertex="1" parent="1">
          <mxGeometry x="497.5044827586207" y="364.5024137931035" width="61" height="41" as="geometry" />
        </mxCell>
      </root>
    </mxGraphModel>
  </diagram>
</mxfile>
